<mxfile host="Electron" modified="2023-11-04T01:33:31.349Z" agent="Mozilla/5.0 (Windows NT 10.0; Win64; x64) AppleWebKit/537.36 (KHTML, like Gecko) draw.io/21.6.1 Chrome/112.0.5615.204 Electron/24.6.1 Safari/537.36" etag="zLsTO_XxD_L6xWfEmJpR" version="21.6.1" type="device">
  <diagram name="Seite-1" id="Oazzs24kd4kcSLzPOHQx">
    <mxGraphModel dx="2175" dy="592" grid="1" gridSize="10" guides="1" tooltips="1" connect="1" arrows="1" fold="1" page="1" pageScale="1" pageWidth="827" pageHeight="1169" math="0" shadow="0">
      <root>
        <mxCell id="0" />
        <mxCell id="1" parent="0" />
        <mxCell id="YPvaAYMOQJjroQQ2ZvVU-1" value="Play System" style="whiteSpace=wrap;html=1;" vertex="1" parent="1">
          <mxGeometry x="440" y="60" width="120" height="60" as="geometry" />
        </mxCell>
        <mxCell id="YPvaAYMOQJjroQQ2ZvVU-2" value="Deck System" style="whiteSpace=wrap;html=1;" vertex="1" parent="1">
          <mxGeometry x="140" y="60" width="120" height="60" as="geometry" />
        </mxCell>
        <mxCell id="YPvaAYMOQJjroQQ2ZvVU-3" value="Turn System" style="whiteSpace=wrap;html=1;" vertex="1" parent="1">
          <mxGeometry x="760" y="60" width="120" height="60" as="geometry" />
        </mxCell>
        <mxCell id="YPvaAYMOQJjroQQ2ZvVU-4" value="&lt;h1&gt;&lt;span style=&quot;background-color: initial;&quot;&gt;Definition&lt;/span&gt;&lt;/h1&gt;&lt;div&gt;&lt;span style=&quot;background-color: initial;&quot;&gt;&quot;Manage&quot; the pool of cards available in the entire game&lt;/span&gt;&lt;/div&gt;&lt;div&gt;&lt;span style=&quot;background-color: initial;&quot;&gt;&lt;br&gt;&lt;/span&gt;&lt;/div&gt;&lt;div&gt;&lt;span style=&quot;background-color: initial;&quot;&gt;&quot;Manage&quot; the actual deck used by the player&lt;/span&gt;&lt;/div&gt;&lt;div&gt;&lt;span style=&quot;background-color: initial;&quot;&gt;&lt;br&gt;&lt;/span&gt;&lt;/div&gt;&lt;div&gt;&lt;span style=&quot;background-color: initial;&quot;&gt;Actions include, shuffling a deck, adding a card from the pool, discarding a card, etc.&lt;/span&gt;&lt;/div&gt;" style="text;html=1;strokeColor=none;fillColor=none;spacing=5;spacingTop=-20;whiteSpace=wrap;overflow=hidden;rounded=0;" vertex="1" parent="1">
          <mxGeometry x="140" y="130" width="190" height="240" as="geometry" />
        </mxCell>
        <mxCell id="YPvaAYMOQJjroQQ2ZvVU-5" value="Deck" style="ellipse;whiteSpace=wrap;html=1;" vertex="1" parent="1">
          <mxGeometry x="140" y="340" width="120" height="80" as="geometry" />
        </mxCell>
        <mxCell id="YPvaAYMOQJjroQQ2ZvVU-6" value="Discard Pile" style="ellipse;whiteSpace=wrap;html=1;" vertex="1" parent="1">
          <mxGeometry x="140" y="430" width="120" height="80" as="geometry" />
        </mxCell>
        <mxCell id="YPvaAYMOQJjroQQ2ZvVU-7" value="Card Pool" style="ellipse;whiteSpace=wrap;html=1;" vertex="1" parent="1">
          <mxGeometry x="140" y="520" width="120" height="80" as="geometry" />
        </mxCell>
        <mxCell id="YPvaAYMOQJjroQQ2ZvVU-8" value="The deck used by the &lt;br&gt;player, shuffle, draw,&lt;br&gt;etc." style="text;html=1;align=center;verticalAlign=middle;resizable=0;points=[];autosize=1;strokeColor=none;fillColor=none;" vertex="1" parent="1">
          <mxGeometry x="-10" y="350" width="140" height="60" as="geometry" />
        </mxCell>
        <mxCell id="YPvaAYMOQJjroQQ2ZvVU-9" value="The pile containing &lt;br&gt;consumed cards;&lt;br&gt;push to discard pile" style="text;html=1;align=center;verticalAlign=middle;resizable=0;points=[];autosize=1;strokeColor=none;fillColor=none;" vertex="1" parent="1">
          <mxGeometry x="-5" y="440" width="130" height="60" as="geometry" />
        </mxCell>
        <mxCell id="YPvaAYMOQJjroQQ2ZvVU-10" value="All cards available in&lt;br&gt;the game;&lt;br&gt;add to deck" style="text;html=1;align=center;verticalAlign=middle;resizable=0;points=[];autosize=1;strokeColor=none;fillColor=none;" vertex="1" parent="1">
          <mxGeometry y="530" width="130" height="60" as="geometry" />
        </mxCell>
        <mxCell id="YPvaAYMOQJjroQQ2ZvVU-11" value="Player Hand" style="ellipse;whiteSpace=wrap;html=1;" vertex="1" parent="1">
          <mxGeometry x="140" y="610" width="120" height="80" as="geometry" />
        </mxCell>
        <mxCell id="YPvaAYMOQJjroQQ2ZvVU-12" value="Represents all&lt;br&gt;cards in the player&#39;s hand;&lt;br&gt;play from hand" style="text;html=1;align=center;verticalAlign=middle;resizable=0;points=[];autosize=1;strokeColor=none;fillColor=none;" vertex="1" parent="1">
          <mxGeometry x="-30" y="620" width="160" height="60" as="geometry" />
        </mxCell>
        <mxCell id="YPvaAYMOQJjroQQ2ZvVU-13" value="&lt;h1&gt;&lt;span style=&quot;background-color: initial;&quot;&gt;Definition&lt;/span&gt;&lt;/h1&gt;&lt;div&gt;&lt;span style=&quot;background-color: initial;&quot;&gt;&quot;Manage&quot; how cards are played,&lt;/span&gt;&lt;/div&gt;&lt;div&gt;&lt;span style=&quot;background-color: initial;&quot;&gt;triggered, their effects, etc.&lt;/span&gt;&lt;/div&gt;&lt;div&gt;&lt;span style=&quot;background-color: initial;&quot;&gt;&lt;br&gt;&lt;/span&gt;&lt;/div&gt;&lt;div&gt;Abide by &quot;mana&quot;&lt;/div&gt;" style="text;html=1;strokeColor=none;fillColor=none;spacing=5;spacingTop=-20;whiteSpace=wrap;overflow=hidden;rounded=0;" vertex="1" parent="1">
          <mxGeometry x="440" y="130" width="190" height="240" as="geometry" />
        </mxCell>
        <mxCell id="YPvaAYMOQJjroQQ2ZvVU-14" value="Player" style="ellipse;whiteSpace=wrap;html=1;" vertex="1" parent="1">
          <mxGeometry x="460" y="340" width="120" height="80" as="geometry" />
        </mxCell>
        <mxCell id="YPvaAYMOQJjroQQ2ZvVU-15" value="How much mana left?&lt;br&gt;..." style="text;html=1;align=center;verticalAlign=middle;resizable=0;points=[];autosize=1;strokeColor=none;fillColor=none;" vertex="1" parent="1">
          <mxGeometry x="310" y="360" width="140" height="40" as="geometry" />
        </mxCell>
        <mxCell id="YPvaAYMOQJjroQQ2ZvVU-16" value="Card" style="ellipse;whiteSpace=wrap;html=1;" vertex="1" parent="1">
          <mxGeometry x="460" y="430" width="120" height="80" as="geometry" />
        </mxCell>
        <mxCell id="YPvaAYMOQJjroQQ2ZvVU-17" value="(Card Type)" style="rhombus;whiteSpace=wrap;html=1;" vertex="1" parent="1">
          <mxGeometry x="430" y="520" width="80" height="80" as="geometry" />
        </mxCell>
        <mxCell id="YPvaAYMOQJjroQQ2ZvVU-18" value="Card Effect" style="rhombus;whiteSpace=wrap;html=1;" vertex="1" parent="1">
          <mxGeometry x="530" y="520" width="80" height="80" as="geometry" />
        </mxCell>
        <mxCell id="YPvaAYMOQJjroQQ2ZvVU-20" value="Steel Knive&lt;br&gt;&lt;br&gt;Deal 3 damage; Then double damage on OP&lt;br&gt;Move back to hand; cost 5" style="shape=card;whiteSpace=wrap;html=1;" vertex="1" parent="1">
          <mxGeometry x="880" y="600" width="97" height="121.25" as="geometry" />
        </mxCell>
        <mxCell id="YPvaAYMOQJjroQQ2ZvVU-21" value="Wooden Stick&lt;br&gt;&lt;br&gt;Deal 1 damage to a Largemouth Bass; cost 0" style="shape=card;whiteSpace=wrap;html=1;" vertex="1" parent="1">
          <mxGeometry x="1100" y="598.75" width="97" height="121.25" as="geometry" />
        </mxCell>
        <mxCell id="YPvaAYMOQJjroQQ2ZvVU-22" value="(Stays on board)&lt;br&gt;&lt;br&gt;Whenever you scale a fish, earn +1." style="shape=card;whiteSpace=wrap;html=1;" vertex="1" parent="1">
          <mxGeometry x="990" y="598.75" width="97" height="121.25" as="geometry" />
        </mxCell>
        <mxCell id="YPvaAYMOQJjroQQ2ZvVU-23" value="Game Board" style="ellipse;whiteSpace=wrap;html=1;" vertex="1" parent="1">
          <mxGeometry x="460" y="620" width="120" height="80" as="geometry" />
        </mxCell>
        <mxCell id="YPvaAYMOQJjroQQ2ZvVU-24" value="Largemouth bass&lt;br&gt;&lt;br&gt;Health: 5&lt;br&gt;Current: 5" style="shape=card;whiteSpace=wrap;html=1;" vertex="1" parent="1">
          <mxGeometry x="990" y="370" width="97" height="121.25" as="geometry" />
        </mxCell>
        <mxCell id="YPvaAYMOQJjroQQ2ZvVU-25" value="(Enemy?)" style="ellipse;whiteSpace=wrap;html=1;" vertex="1" parent="1">
          <mxGeometry x="460" y="720" width="120" height="80" as="geometry" />
        </mxCell>
      </root>
    </mxGraphModel>
  </diagram>
</mxfile>
